<?xml version="1.0" standalone="no"?>
<!DOCTYPE svg PUBLIC "-//W3C//DTD SVG 20010904//EN"
 "http://www.w3.org/TR/2001/REC-SVG-20010904/DTD/svg10.dtd">
<svg version="1.0" xmlns="http://www.w3.org/2000/svg"
 width="90pt" height="100%" viewBox="0 0 1312.000000 732.000000"
 preserveAspectRatio="xMidYMid meet">

<g transform="translate(0.000000,732.000000) scale(0.100000,-0.100000)"
fill="#000000" stroke="none">
<path d="M3924 5044 c3 -9 9 -28 13 -42 3 -14 12 -37 19 -51 8 -14 14 -35 14
-47 0 -20 33 -56 77 -85 80 -54 255 -220 351 -334 139 -165 283 -418 332 -580
6 -22 15 -49 19 -60 18 -45 31 -95 46 -180 9 -49 21 -109 26 -133 13 -59 11
-422 -2 -496 -23 -130 -63 -288 -89 -351 -5 -11 -16 -42 -26 -70 -25 -72 -135
-285 -185 -358 -144 -211 -342 -407 -534 -528 -99 -63 -307 -163 -395 -192
-68 -22 -95 -29 -195 -53 -16 -4 -48 -8 -70 -9 -22 -2 -74 -8 -115 -14 -198
-29 -345 -25 -570 16 -329 59 -615 193 -865 404 -76 64 -243 237 -275 285 -8
12 -36 52 -63 89 -26 36 -47 70 -47 75 0 6 -3 10 -8 10 -8 0 -10 3 -78 141
-29 57 -58 122 -65 144 -7 22 -17 44 -21 50 -4 5 -8 17 -8 27 0 10 -4 26 -9
36 -16 31 -32 97 -63 267 -6 33 -12 146 -13 250 -2 217 -2 215 -12 215 -12 0
-63 -103 -63 -127 0 -12 -4 -25 -10 -28 -5 -3 -10 -19 -10 -36 0 -16 -4 -29
-10 -29 -5 0 -10 -18 -10 -39 0 -22 -4 -43 -10 -46 -5 -3 -10 -21 -10 -40 0
-19 -4 -44 -9 -58 -23 -61 -18 -376 8 -527 6 -30 13 -71 16 -90 6 -34 17 -65
36 -102 5 -10 9 -27 9 -38 0 -18 46 -131 72 -175 7 -11 21 -38 33 -60 20 -39
32 -59 84 -140 139 -218 438 -468 657 -549 22 -8 64 -24 94 -36 182 -72 425
-106 656 -90 75 5 154 3 254 -7 175 -18 514 -12 630 11 252 51 488 140 670
254 85 54 135 86 140 92 3 3 34 28 70 55 105 80 306 286 348 358 9 15 20 27
24 27 4 0 8 5 8 10 0 6 9 20 20 32 11 12 20 28 20 35 0 7 5 13 10 13 6 0 10 7
10 15 0 8 3 15 8 15 4 0 15 17 25 38 10 20 35 67 57 105 21 37 44 84 51 105 7
20 20 52 31 70 10 18 18 39 18 46 0 14 34 106 51 138 5 10 9 36 9 57 0 22 5
43 10 46 6 3 10 21 10 39 0 17 4 36 9 42 10 10 15 54 31 309 6 94 11 177 13
185 7 53 -31 274 -74 428 -63 226 -191 477 -343 672 -124 160 -342 358 -497
452 -109 66 -151 88 -169 88 -9 0 -20 4 -25 9 -6 4 -41 20 -78 34 -55 21 -68
23 -63 11z"/>
<path d="M2640 4969 c-288 -45 -505 -124 -720 -264 -147 -95 -250 -186 -366
-321 -61 -72 -95 -124 -198 -308 -69 -124 -185 -446 -193 -536 -2 -25 -9 -55
-15 -66 -10 -21 -5 -305 7 -404 35 -286 156 -584 334 -820 59 -79 206 -231
281 -292 128 -103 347 -227 495 -279 315 -111 630 -129 971 -55 75 16 95 22
129 36 11 5 54 21 95 36 79 29 239 108 293 146 281 193 493 432 621 698 44 94
102 251 116 320 4 19 16 71 26 115 29 126 27 491 -4 637 -60 287 -187 552
-368 769 -147 177 -364 344 -564 435 -30 13 -64 29 -75 34 -39 19 -192 69
-257 84 -184 43 -457 58 -608 35z m948 -817 c13 -8 32 -33 43 -56 31 -72 133
-404 154 -506 4 -19 11 -53 16 -75 19 -90 60 -397 66 -495 8 -151 -24 -317
-81 -412 -40 -68 -115 -136 -185 -171 -63 -30 -72 -32 -176 -31 -88 0 -121 5
-165 22 -69 27 -125 73 -151 124 -37 73 -22 207 32 295 49 79 172 145 316 168
97 16 181 32 217 42 18 5 18 13 12 107 -8 132 -59 420 -87 493 -15 40 -51 46
-184 34 -271 -26 -507 -67 -671 -116 -122 -37 -119 -29 -80 -230 57 -292 61
-317 61 -435 0 -143 -17 -200 -86 -292 -94 -126 -216 -206 -347 -229 -81 -15
-186 8 -267 57 -70 42 -100 75 -120 133 -52 152 47 304 249 385 82 32 217 66
267 66 20 0 51 3 68 6 31 7 32 8 26 48 -7 49 -21 142 -36 234 -10 62 -48 256
-69 347 -28 124 -41 207 -36 223 11 34 134 109 283 173 96 41 304 87 448 99
146 13 456 7 483 -8z"/>
<path d="M5835 4053 c-34 -9 -66 -36 -94 -77 l-26 -41 0 -691 0 -691 27 -39
c38 -55 79 -76 157 -81 80 -5 137 20 185 80 l31 39 5 234 c4 194 8 236 20 244
26 16 121 23 239 17 160 -8 151 8 151 -262 0 -127 4 -225 11 -242 44 -116 233
-153 327 -63 69 66 66 24 65 750 -2 633 -2 657 -22 709 -11 29 -22 54 -23 56
-2 1 -20 14 -40 29 -64 48 -188 45 -252 -5 -56 -44 -61 -65 -66 -312 -4 -203
-7 -230 -23 -241 -21 -16 -226 -30 -302 -21 -31 4 -62 13 -69 20 -9 10 -15 74
-20 229 -8 272 -21 310 -119 351 -35 14 -119 18 -162 8z"/>
<path d="M8988 4050 c-75 -13 -186 -57 -263 -102 -78 -46 -208 -172 -248 -239
-132 -222 -174 -425 -127 -626 73 -319 284 -548 581 -629 92 -26 337 -25 434
0 86 23 190 74 271 133 62 45 160 154 195 215 51 91 87 180 99 248 7 41 16 91
21 110 14 56 11 126 -12 240 -61 306 -267 536 -564 630 -54 17 -101 23 -205
25 -74 2 -156 0 -182 -5z m278 -436 c58 -16 142 -69 186 -117 16 -18 44 -61
61 -97 27 -54 32 -79 35 -151 4 -82 2 -91 -30 -154 -40 -81 -103 -142 -196
-187 -64 -31 -72 -33 -182 -33 -129 0 -151 7 -247 84 -70 55 -89 84 -119 192
l-27 94 21 84 c35 135 97 213 215 266 95 44 174 49 283 19z"/>
<path d="M10292 4050 c-19 -4 -47 -21 -63 -36 -62 -59 -59 -24 -59 -769 l0
-681 29 -45 c37 -60 86 -83 171 -84 90 0 137 25 170 91 24 48 25 54 22 237 -2
164 0 192 15 218 21 34 19 34 60 9 31 -18 65 -60 108 -131 11 -18 25 -41 31
-51 6 -10 18 -26 26 -35 9 -10 55 -76 104 -148 48 -71 99 -140 112 -152 36
-31 102 -47 159 -38 57 8 78 18 116 54 44 40 59 79 60 146 1 70 -17 107 -99
211 -27 33 -60 76 -74 94 -37 50 -192 242 -211 264 -10 10 -23 31 -29 46 -16
38 1 69 89 162 111 118 139 149 210 233 100 119 106 130 106 205 0 116 -68
196 -177 207 -82 8 -130 -9 -176 -65 -21 -26 -45 -58 -52 -71 -6 -13 -31 -49
-54 -80 -43 -57 -89 -121 -172 -243 -40 -59 -109 -127 -118 -117 -2 2 -11 18
-20 36 -12 25 -16 63 -15 185 1 187 -15 270 -60 310 -48 43 -127 58 -209 38z"/>
<path d="M7285 4045 c-5 -2 -22 -6 -37 -9 -15 -4 -43 -20 -62 -37 -69 -60 -83
-240 -24 -314 32 -41 99 -64 210 -74 65 -5 105 -13 114 -23 13 -13 15 -86 14
-514 l0 -499 22 -45 c41 -81 128 -114 233 -91 65 15 119 62 133 117 12 47 17
305 13 699 -1 182 1 300 8 317 11 29 21 32 146 43 94 8 151 37 193 99 28 42
32 56 32 115 -1 92 -35 155 -105 191 l-49 25 -416 2 c-228 1 -419 0 -425 -2z"/>
<path d="M1127 3526 c-4 -10 -5 -21 -2 -24 9 -9 17 6 13 25 -3 17 -4 17 -11
-1z"/>
</g>
</svg>
